<?xml version="1.0" standalone="no"?>
<!DOCTYPE svg PUBLIC "-//W3C//DTD SVG 20010904//EN"
 "http://www.w3.org/TR/2001/REC-SVG-20010904/DTD/svg10.dtd">
<svg version="1.0" xmlns="http://www.w3.org/2000/svg"
 width="822.000000pt" height="804.000000pt" viewBox="0 0 822.000000 804.000000"
 preserveAspectRatio="xMidYMid meet">
<metadata>
Created by potrace 1.13, written by Peter Selinger 2001-2015
</metadata>
<g transform="translate(0.000000,804.000000) scale(0.100000,-0.100000)"
fill="#000000" stroke="none">
<path d="M3655 6890 c-161 -15 -363 -48 -514 -85 -792 -194 -1479 -753 -1846
-1500 -271 -550 -351 -1115 -254 -1790 110 -770 431 -1364 909 -1682 255 -169
548 -263 785 -250 201 11 368 61 745 225 234 101 228 99 520 122 146 11 337
21 425 22 160 1 160 1 265 -35 58 -21 113 -37 123 -37 30 0 173 59 192 80 25
27 13 62 -41 120 -73 78 -92 83 -304 91 -102 4 -202 10 -222 14 l-37 7 53 48
c118 109 219 303 232 449 14 153 -57 257 -210 307 -28 9 -55 20 -60 24 -5 5
-3 38 3 77 16 94 20 103 37 96 8 -3 65 0 127 7 61 7 129 10 149 9 l38 -4 -30
-45 c-47 -71 -86 -168 -72 -182 15 -15 37 5 149 135 61 70 90 97 107 97 46 0
83 22 118 68 39 52 88 168 88 208 0 15 19 50 46 86 26 33 94 131 151 216 l104
157 -38 17 c-21 9 -43 17 -50 17 -14 1 -255 -298 -311 -385 -25 -40 -30 -43
-70 -44 -26 0 -61 -10 -90 -25 -44 -24 -55 -25 -207 -25 l-160 0 0 73 c0 86
-18 144 -87 285 -71 148 -72 172 -11 312 l24 55 27 -50 c22 -40 41 -58 99 -94
88 -53 136 -60 260 -37 49 8 99 17 113 18 36 4 37 35 2 126 -26 67 -120 458
-151 627 -34 184 -169 324 -384 395 -62 20 -67 24 -60 43 4 12 8 81 8 152 -1
105 -5 145 -24 209 -71 246 -220 445 -399 535 -96 48 -122 54 -196 41 -190
-31 -338 -180 -491 -495 -120 -245 -171 -438 -163 -609 7 -131 33 -202 100
-269 50 -50 131 -92 196 -103 22 -3 75 3 132 15 116 26 185 27 194 5 10 -26 7
-62 -8 -97 -21 -51 -225 -278 -400 -447 -424 -408 -498 -502 -672 -856 -107
-218 -118 -266 -118 -494 0 -161 3 -196 22 -268 40 -147 115 -269 227 -367 37
-33 65 -66 65 -77 0 -34 -40 -97 -72 -114 -66 -34 -249 7 -403 91 -311 169
-556 472 -725 895 -135 339 -207 807 -181 1170 30 404 113 723 276 1055 129
263 270 461 469 661 200 199 372 321 631 445 210 101 389 156 660 205 140 26
565 26 745 1 423 -59 811 -212 1180 -465 123 -84 178 -130 329 -277 266 -259
453 -543 594 -900 123 -311 176 -706 148 -1104 -20 -288 -83 -521 -210 -786
-171 -355 -385 -614 -709 -857 -331 -249 -737 -432 -1182 -532 -179 -40 -156
-46 70 -21 373 43 620 106 909 232 285 124 496 267 711 483 429 428 640 991
640 1703 0 377 -36 614 -142 937 -259 793 -871 1440 -1651 1745 -107 41 -363
121 -487 151 -164 39 -552 62 -755 44z"/>
<path d="M5530 4414 c0 -34 -11 -54 -81 -141 -32 -40 -64 -92 -70 -114 -11
-35 -10 -43 8 -67 26 -35 59 -52 102 -52 27 0 42 8 71 39 46 48 64 108 58 199
-4 71 -29 125 -70 151 -16 10 -18 8 -18 -15z"/>
</g>
</svg>
