<?xml version="1.0" standalone="no"?>
<!DOCTYPE svg PUBLIC "-//W3C//DTD SVG 20010904//EN"
 "http://www.w3.org/TR/2001/REC-SVG-20010904/DTD/svg10.dtd">
<svg version="1.0" xmlns="http://www.w3.org/2000/svg"
 width="325.000000pt" height="260.000000pt" viewBox="0 0 325.000000 260.000000"
 preserveAspectRatio="xMidYMid meet">
<metadata>
Created by potrace 1.13, written by Peter Selinger 2001-2015
</metadata>
<g transform="translate(0.000000,260.000000) scale(0.100000,-0.100000)"
fill="#000000" stroke="none">
<path d="M1380 1828 c-126 -36 -180 -186 -107 -297 26 -40 47 -53 47 -30 0 6
-10 25 -22 42 -26 37 -36 124 -18 167 27 64 114 109 187 95 26 -5 51 -20 80
-50 54 -57 65 -111 35 -179 -12 -25 -17 -48 -13 -50 4 -3 27 2 53 10 40 14 49
14 83 0 20 -9 41 -14 45 -11 4 3 -1 22 -12 42 -25 48 -21 131 8 170 63 84 176
98 248 30 63 -60 71 -148 20 -222 -33 -50 -16 -70 19 -23 63 82 57 188 -14
259 -59 59 -140 74 -214 40 -78 -35 -122 -115 -112 -202 l6 -49 -43 0 -44 0 8
36 c17 75 -30 172 -100 209 -37 19 -100 25 -140 13z"/>
<path d="M1030 1387 c0 -8 71 -35 193 -71 105 -32 199 -63 207 -68 12 -7 10
-8 -5 -4 -68 17 -437 77 -442 72 -15 -15 25 -26 252 -66 132 -23 242 -44 245
-47 3 -3 -15 -2 -40 1 -51 7 -481 46 -505 46 -8 0 -15 -6 -15 -13 0 -10 80
-20 320 -41 l321 -29 33 -33 c47 -47 94 -43 141 11 19 22 35 24 338 51 242 21
317 31 317 41 0 16 5 17 -245 -7 -115 -11 -223 -19 -240 -19 -16 1 73 20 199
43 138 25 231 47 234 54 5 17 -10 16 -248 -27 -118 -22 -216 -38 -218 -36 -2
2 12 8 30 13 296 93 387 125 383 133 -4 5 -11 9 -17 9 -6 0 -133 -39 -283 -87
-270 -86 -272 -86 -272 -114 0 -37 -19 -59 -53 -59 -33 0 -60 28 -60 62 0 24
-11 28 -278 111 -153 48 -282 87 -285 87 -4 0 -7 -6 -7 -13z"/>
</g>
</svg>
